<mxfile host="app.diagrams.net" modified="2021-09-07T15:31:48.339Z" agent="5.0 (Windows NT 10.0; Win64; x64) AppleWebKit/537.36 (KHTML, like Gecko) Chrome/92.0.4515.159 Safari/537.36" etag="IFFGAiAPOnixp87kEunB" version="14.4.3" type="github">
  <diagram id="CTR_64fD-o5CEm3Xrwsm" name="Page-1">
    <mxGraphModel dx="1993" dy="868" grid="1" gridSize="10" guides="1" tooltips="1" connect="0" arrows="1" fold="1" page="1" pageScale="1" pageWidth="850" pageHeight="1100" math="0" shadow="0">
      <root>
        <mxCell id="0" />
        <mxCell id="1" parent="0" />
        <mxCell id="NvVewkW-4P6D2P3-crmc-1" value="" style="endArrow=classic;html=1;exitX=0.5;exitY=1;exitDx=0;exitDy=0;" parent="1" source="NvVewkW-4P6D2P3-crmc-3" edge="1">
          <mxGeometry relative="1" as="geometry">
            <mxPoint x="330" y="167" as="sourcePoint" />
            <mxPoint x="320" y="197" as="targetPoint" />
          </mxGeometry>
        </mxCell>
        <mxCell id="NvVewkW-4P6D2P3-crmc-2" value="100%" style="edgeLabel;resizable=0;html=1;align=center;verticalAlign=middle;" parent="NvVewkW-4P6D2P3-crmc-1" connectable="0" vertex="1">
          <mxGeometry relative="1" as="geometry" />
        </mxCell>
        <mxCell id="NvVewkW-4P6D2P3-crmc-3" value="Song Qihong" style="rounded=0;whiteSpace=wrap;html=1;" parent="1" vertex="1">
          <mxGeometry x="245" y="127" width="150" height="30" as="geometry" />
        </mxCell>
        <mxCell id="NvVewkW-4P6D2P3-crmc-5" value="Wellhead Song" style="rounded=0;whiteSpace=wrap;html=1;" parent="1" vertex="1">
          <mxGeometry x="245" y="197" width="150" height="30" as="geometry" />
        </mxCell>
        <mxCell id="NvVewkW-4P6D2P3-crmc-20" value="" style="endArrow=classic;html=1;exitX=0.5;exitY=1;exitDx=0;exitDy=0;" parent="1" source="NvVewkW-4P6D2P3-crmc-5" edge="1">
          <mxGeometry relative="1" as="geometry">
            <mxPoint x="280" y="277" as="sourcePoint" />
            <mxPoint x="320" y="300" as="targetPoint" />
          </mxGeometry>
        </mxCell>
        <mxCell id="NvVewkW-4P6D2P3-crmc-21" value="100%" style="edgeLabel;resizable=0;html=1;align=center;verticalAlign=middle;" parent="NvVewkW-4P6D2P3-crmc-20" connectable="0" vertex="1">
          <mxGeometry relative="1" as="geometry" />
        </mxCell>
        <mxCell id="NvVewkW-4P6D2P3-crmc-27" value="" style="endArrow=classic;html=1;anchorPointDirection=1;" parent="1" edge="1">
          <mxGeometry relative="1" as="geometry">
            <mxPoint x="321" y="247" as="sourcePoint" />
            <mxPoint x="152" y="300" as="targetPoint" />
            <Array as="points">
              <mxPoint x="151" y="247" />
            </Array>
          </mxGeometry>
        </mxCell>
        <mxCell id="NvVewkW-4P6D2P3-crmc-28" value="100%" style="edgeLabel;resizable=0;html=1;align=center;verticalAlign=middle;" parent="NvVewkW-4P6D2P3-crmc-27" connectable="0" vertex="1">
          <mxGeometry relative="1" as="geometry">
            <mxPoint x="-54.33" y="16" as="offset" />
          </mxGeometry>
        </mxCell>
        <mxCell id="NvVewkW-4P6D2P3-crmc-29" value="" style="endArrow=classic;html=1;entryX=0.518;entryY=-0.005;entryDx=0;entryDy=0;entryPerimeter=0;" parent="1" target="NvVewkW-4P6D2P3-crmc-32" edge="1">
          <mxGeometry relative="1" as="geometry">
            <mxPoint x="320" y="247" as="sourcePoint" />
            <mxPoint x="437" y="300" as="targetPoint" />
            <Array as="points">
              <mxPoint x="488" y="247" />
            </Array>
          </mxGeometry>
        </mxCell>
        <mxCell id="NvVewkW-4P6D2P3-crmc-30" value="100%" style="edgeLabel;resizable=0;html=1;align=center;verticalAlign=middle;" parent="NvVewkW-4P6D2P3-crmc-29" connectable="0" vertex="1">
          <mxGeometry relative="1" as="geometry">
            <mxPoint x="59.17" y="15" as="offset" />
          </mxGeometry>
        </mxCell>
        <mxCell id="NvVewkW-4P6D2P3-crmc-31" value="Golgery Wong" style="rounded=0;whiteSpace=wrap;html=1;" parent="1" vertex="1">
          <mxGeometry x="245" y="300" width="150" height="30" as="geometry" />
        </mxCell>
        <mxCell id="NvVewkW-4P6D2P3-crmc-32" value="Bertiny Songwriter" style="rounded=0;whiteSpace=wrap;html=1;" parent="1" vertex="1">
          <mxGeometry x="410" y="300" width="150" height="30" as="geometry" />
        </mxCell>
        <mxCell id="NvVewkW-4P6D2P3-crmc-33" value="Fullsun W." style="rounded=0;whiteSpace=wrap;html=1;" parent="1" vertex="1">
          <mxGeometry x="80" y="300" width="150" height="30" as="geometry" />
        </mxCell>
        <mxCell id="NvVewkW-4P6D2P3-crmc-34" value="Triton Invesment&lt;br&gt;Group Pte Ltd" style="rounded=0;whiteSpace=wrap;html=1;" parent="1" vertex="1">
          <mxGeometry x="80" y="378" width="150" height="30" as="geometry" />
        </mxCell>
        <mxCell id="NvVewkW-4P6D2P3-crmc-35" value="&lt;b&gt;PT Biota Laut Ganggang&lt;/b&gt;" style="rounded=0;whiteSpace=wrap;html=1;" parent="1" vertex="1">
          <mxGeometry x="80" y="430" width="150" height="30" as="geometry" />
        </mxCell>
        <mxCell id="NvVewkW-4P6D2P3-crmc-36" value="" style="endArrow=classic;html=1;exitX=0.467;exitY=1.071;exitDx=0;exitDy=0;exitPerimeter=0;entryX=-0.025;entryY=0.592;entryDx=0;entryDy=0;entryPerimeter=0;" parent="1" source="NvVewkW-4P6D2P3-crmc-33" target="NvVewkW-4P6D2P3-crmc-35" edge="1">
          <mxGeometry width="50" height="50" relative="1" as="geometry">
            <mxPoint x="140" y="340" as="sourcePoint" />
            <mxPoint x="50" y="490" as="targetPoint" />
            <Array as="points">
              <mxPoint x="150" y="350" />
              <mxPoint x="50" y="350" />
              <mxPoint x="50" y="448" />
            </Array>
          </mxGeometry>
        </mxCell>
        <mxCell id="NvVewkW-4P6D2P3-crmc-37" value="" style="endArrow=classic;html=1;entryX=0.469;entryY=0.002;entryDx=0;entryDy=0;entryPerimeter=0;" parent="1" target="NvVewkW-4P6D2P3-crmc-34" edge="1">
          <mxGeometry relative="1" as="geometry">
            <mxPoint x="150" y="350" as="sourcePoint" />
            <mxPoint x="152" y="376" as="targetPoint" />
          </mxGeometry>
        </mxCell>
        <mxCell id="NvVewkW-4P6D2P3-crmc-38" value="100%" style="edgeLabel;resizable=0;html=1;align=center;verticalAlign=middle;" parent="NvVewkW-4P6D2P3-crmc-37" connectable="0" vertex="1">
          <mxGeometry relative="1" as="geometry" />
        </mxCell>
        <mxCell id="NvVewkW-4P6D2P3-crmc-40" value="" style="endArrow=classic;html=1;" parent="1" edge="1">
          <mxGeometry relative="1" as="geometry">
            <mxPoint x="150" y="408" as="sourcePoint" />
            <mxPoint x="150" y="430" as="targetPoint" />
          </mxGeometry>
        </mxCell>
        <mxCell id="NvVewkW-4P6D2P3-crmc-41" value="99%" style="edgeLabel;resizable=0;html=1;align=center;verticalAlign=middle;" parent="NvVewkW-4P6D2P3-crmc-40" connectable="0" vertex="1">
          <mxGeometry relative="1" as="geometry" />
        </mxCell>
        <mxCell id="NvVewkW-4P6D2P3-crmc-42" value="1%" style="edgeLabel;resizable=0;html=1;align=center;verticalAlign=middle;" parent="1" connectable="0" vertex="1">
          <mxGeometry x="50.00461221907831" y="392.99891104954054" as="geometry" />
        </mxCell>
        <mxCell id="NvVewkW-4P6D2P3-crmc-43" value="Shanghai Brilliant Invesment Co., Ltd." style="rounded=0;whiteSpace=wrap;html=1;" parent="1" vertex="1">
          <mxGeometry x="624" y="129" width="150" height="30" as="geometry" />
        </mxCell>
        <mxCell id="NvVewkW-4P6D2P3-crmc-44" value="Shanghai Chongsan Industrial Co., Ltd." style="rounded=0;whiteSpace=wrap;html=1;" parent="1" vertex="1">
          <mxGeometry x="624" y="182" width="150" height="30" as="geometry" />
        </mxCell>
        <mxCell id="NvVewkW-4P6D2P3-crmc-45" value="Shanghai Brilliant &lt;br&gt;Gum Co., Ltd." style="rounded=0;whiteSpace=wrap;html=1;" parent="1" vertex="1">
          <mxGeometry x="624" y="232" width="150" height="30" as="geometry" />
        </mxCell>
        <mxCell id="NvVewkW-4P6D2P3-crmc-46" value="Shanghai Siwei Biotechnology Co.,Ltd." style="rounded=0;whiteSpace=wrap;html=1;" parent="1" vertex="1">
          <mxGeometry x="624" y="288" width="150" height="30" as="geometry" />
        </mxCell>
        <mxCell id="NvVewkW-4P6D2P3-crmc-47" value="&lt;font style=&quot;font-size: 11px&quot;&gt;Shanghai Zifeng Trade Center (Limited Partnership)&lt;/font&gt;" style="rounded=0;whiteSpace=wrap;html=1;" parent="1" vertex="1">
          <mxGeometry x="624" y="332" width="150" height="30" as="geometry" />
        </mxCell>
        <mxCell id="NvVewkW-4P6D2P3-crmc-48" value="Wang Jinyuan" style="rounded=0;whiteSpace=wrap;html=1;" parent="1" vertex="1">
          <mxGeometry x="827" y="129" width="150" height="30" as="geometry" />
        </mxCell>
        <mxCell id="NvVewkW-4P6D2P3-crmc-49" value="" style="endArrow=classic;html=1;entryX=-0.001;entryY=0.391;entryDx=0;entryDy=0;entryPerimeter=0;" parent="1" target="NvVewkW-4P6D2P3-crmc-43" edge="1">
          <mxGeometry relative="1" as="geometry">
            <mxPoint x="395" y="141.5" as="sourcePoint" />
            <mxPoint x="495" y="141.5" as="targetPoint" />
          </mxGeometry>
        </mxCell>
        <mxCell id="NvVewkW-4P6D2P3-crmc-50" value="40%" style="edgeLabel;resizable=0;html=1;align=center;verticalAlign=middle;" parent="NvVewkW-4P6D2P3-crmc-49" connectable="0" vertex="1">
          <mxGeometry relative="1" as="geometry">
            <mxPoint x="86" as="offset" />
          </mxGeometry>
        </mxCell>
        <mxCell id="NvVewkW-4P6D2P3-crmc-51" value="" style="endArrow=classic;html=1;entryX=-0.012;entryY=0.634;entryDx=0;entryDy=0;entryPerimeter=0;" parent="1" target="NvVewkW-4P6D2P3-crmc-47" edge="1">
          <mxGeometry relative="1" as="geometry">
            <mxPoint x="573" y="141" as="sourcePoint" />
            <mxPoint x="573" y="283" as="targetPoint" />
            <Array as="points">
              <mxPoint x="573" y="351" />
            </Array>
          </mxGeometry>
        </mxCell>
        <mxCell id="NvVewkW-4P6D2P3-crmc-52" value="30%" style="edgeLabel;resizable=0;html=1;align=center;verticalAlign=middle;" parent="NvVewkW-4P6D2P3-crmc-51" connectable="0" vertex="1">
          <mxGeometry relative="1" as="geometry">
            <mxPoint x="17" y="79" as="offset" />
          </mxGeometry>
        </mxCell>
        <mxCell id="NvVewkW-4P6D2P3-crmc-53" value="" style="endArrow=classic;html=1;entryX=0.002;entryY=0.496;entryDx=0;entryDy=0;entryPerimeter=0;" parent="1" edge="1">
          <mxGeometry relative="1" as="geometry">
            <mxPoint x="573" y="247" as="sourcePoint" />
            <mxPoint x="623.3" y="246.88" as="targetPoint" />
          </mxGeometry>
        </mxCell>
        <mxCell id="NvVewkW-4P6D2P3-crmc-54" value="30%" style="edgeLabel;resizable=0;html=1;align=center;verticalAlign=middle;" parent="NvVewkW-4P6D2P3-crmc-53" connectable="0" vertex="1">
          <mxGeometry relative="1" as="geometry" />
        </mxCell>
        <mxCell id="FDBf5lzjFO57Yr1apSe6-1" value="" style="endArrow=classic;html=1;exitX=0.002;exitY=0.476;exitDx=0;exitDy=0;exitPerimeter=0;" edge="1" parent="1" source="NvVewkW-4P6D2P3-crmc-48">
          <mxGeometry relative="1" as="geometry">
            <mxPoint x="820" y="143" as="sourcePoint" />
            <mxPoint x="774" y="142.70999999999998" as="targetPoint" />
          </mxGeometry>
        </mxCell>
        <mxCell id="FDBf5lzjFO57Yr1apSe6-2" value="60%" style="edgeLabel;resizable=0;html=1;align=center;verticalAlign=middle;" connectable="0" vertex="1" parent="FDBf5lzjFO57Yr1apSe6-1">
          <mxGeometry relative="1" as="geometry" />
        </mxCell>
        <mxCell id="FDBf5lzjFO57Yr1apSe6-5" value="" style="endArrow=classic;html=1;entryX=1.016;entryY=0.51;entryDx=0;entryDy=0;entryPerimeter=0;" edge="1" parent="1" target="NvVewkW-4P6D2P3-crmc-47">
          <mxGeometry relative="1" as="geometry">
            <mxPoint x="819" y="143" as="sourcePoint" />
            <mxPoint x="819" y="351" as="targetPoint" />
            <Array as="points">
              <mxPoint x="819" y="347" />
            </Array>
          </mxGeometry>
        </mxCell>
        <mxCell id="FDBf5lzjFO57Yr1apSe6-6" value="70%" style="edgeLabel;resizable=0;html=1;align=center;verticalAlign=middle;" connectable="0" vertex="1" parent="FDBf5lzjFO57Yr1apSe6-5">
          <mxGeometry relative="1" as="geometry">
            <mxPoint x="-18" y="79.8" as="offset" />
          </mxGeometry>
        </mxCell>
        <mxCell id="FDBf5lzjFO57Yr1apSe6-7" value="" style="endArrow=classic;html=1;" edge="1" parent="1">
          <mxGeometry relative="1" as="geometry">
            <mxPoint x="819" y="246" as="sourcePoint" />
            <mxPoint x="774" y="246" as="targetPoint" />
          </mxGeometry>
        </mxCell>
        <mxCell id="FDBf5lzjFO57Yr1apSe6-8" value="70%" style="edgeLabel;resizable=0;html=1;align=center;verticalAlign=middle;" connectable="0" vertex="1" parent="FDBf5lzjFO57Yr1apSe6-7">
          <mxGeometry relative="1" as="geometry" />
        </mxCell>
        <mxCell id="FDBf5lzjFO57Yr1apSe6-11" value="Zhejiang Top &lt;br&gt;Hidrocolloids Co.,Ltd." style="rounded=0;whiteSpace=wrap;html=1;" vertex="1" parent="1">
          <mxGeometry x="245" y="430" width="150" height="30" as="geometry" />
        </mxCell>
        <mxCell id="FDBf5lzjFO57Yr1apSe6-12" value="Zhengyuan Internatioanal Investment Limited" style="rounded=0;whiteSpace=wrap;html=1;" vertex="1" parent="1">
          <mxGeometry x="245" y="378" width="150" height="30" as="geometry" />
        </mxCell>
        <mxCell id="FDBf5lzjFO57Yr1apSe6-13" value="10" style="endArrow=classic;html=1;" edge="1" parent="1">
          <mxGeometry relative="1" as="geometry">
            <mxPoint x="319.71000000000004" y="408" as="sourcePoint" />
            <mxPoint x="319.71000000000004" y="430" as="targetPoint" />
          </mxGeometry>
        </mxCell>
        <mxCell id="FDBf5lzjFO57Yr1apSe6-14" value="100%" style="edgeLabel;resizable=0;html=1;align=center;verticalAlign=middle;" connectable="0" vertex="1" parent="FDBf5lzjFO57Yr1apSe6-13">
          <mxGeometry relative="1" as="geometry" />
        </mxCell>
        <mxCell id="FDBf5lzjFO57Yr1apSe6-15" value="" style="endArrow=classic;html=1;entryX=0.497;entryY=0.024;entryDx=0;entryDy=0;entryPerimeter=0;" edge="1" parent="1" target="FDBf5lzjFO57Yr1apSe6-12">
          <mxGeometry relative="1" as="geometry">
            <mxPoint x="319.71000000000004" y="333.94" as="sourcePoint" />
            <mxPoint x="320.06000000000006" y="362.00000000000006" as="targetPoint" />
          </mxGeometry>
        </mxCell>
        <mxCell id="FDBf5lzjFO57Yr1apSe6-16" value="100%" style="edgeLabel;resizable=0;html=1;align=center;verticalAlign=middle;" connectable="0" vertex="1" parent="FDBf5lzjFO57Yr1apSe6-15">
          <mxGeometry relative="1" as="geometry" />
        </mxCell>
        <mxCell id="FDBf5lzjFO57Yr1apSe6-17" value="10" style="endArrow=classic;html=1;" edge="1" parent="1">
          <mxGeometry relative="1" as="geometry">
            <mxPoint x="690" y="160" as="sourcePoint" />
            <mxPoint x="690" y="182" as="targetPoint" />
          </mxGeometry>
        </mxCell>
        <mxCell id="FDBf5lzjFO57Yr1apSe6-18" value="100%" style="edgeLabel;resizable=0;html=1;align=center;verticalAlign=middle;" connectable="0" vertex="1" parent="FDBf5lzjFO57Yr1apSe6-17">
          <mxGeometry relative="1" as="geometry" />
        </mxCell>
        <mxCell id="FDBf5lzjFO57Yr1apSe6-22" value="10" style="endArrow=classic;html=1;entryX=0.449;entryY=0.023;entryDx=0;entryDy=0;entryPerimeter=0;" edge="1" parent="1" target="NvVewkW-4P6D2P3-crmc-46">
          <mxGeometry relative="1" as="geometry">
            <mxPoint x="692" y="264" as="sourcePoint" />
            <mxPoint x="692" y="282" as="targetPoint" />
          </mxGeometry>
        </mxCell>
        <mxCell id="FDBf5lzjFO57Yr1apSe6-23" value="100%" style="edgeLabel;resizable=0;html=1;align=center;verticalAlign=middle;" connectable="0" vertex="1" parent="FDBf5lzjFO57Yr1apSe6-22">
          <mxGeometry relative="1" as="geometry">
            <mxPoint x="-2" as="offset" />
          </mxGeometry>
        </mxCell>
      </root>
    </mxGraphModel>
  </diagram>
</mxfile>
